<svg width="984" height="123" viewBox="0 0 984 123" fill="none" xmlns="http://www.w3.org/2000/svg">
<path d="M25.1875 32.3018V40.9688C25.1875 43.8984 26.2048 46.3805 28.2393 48.415C30.2738 50.4495 32.7152 51.4668 35.5635 51.4668H140.3C149.903 51.4668 158.081 54.8848 164.836 61.7207C171.672 68.4753 175.09 76.6947 175.09 86.3789V88.0879C175.09 97.6908 171.672 105.91 164.836 112.746C158.081 119.582 149.903 123 140.3 123H8.70801C8.46387 123 8.21973 122.919 7.97559 122.756C7.81283 122.512 7.73145 122.227 7.73145 121.901V103.103C7.73145 102.777 7.81283 102.533 7.97559 102.37C8.21973 102.126 8.46387 102.004 8.70801 102.004H140.3C143.148 102.004 145.59 100.987 147.624 98.9521C149.659 96.9176 150.676 94.4762 150.676 91.6279V82.8389C150.676 79.9906 149.659 77.5492 147.624 75.5146C145.59 73.3988 143.148 72.3408 140.3 72.3408H35.5635C25.9606 72.3408 17.7412 68.9635 10.9053 62.209C4.15072 55.373 0.773438 47.1536 0.773438 37.5508V35.7197C0.773438 26.1169 4.15072 17.9382 10.9053 11.1836C17.7412 4.34766 25.9606 0.929688 35.5635 0.929688H167.155C167.399 0.929688 167.603 1.05176 167.766 1.2959C168.01 1.45866 168.132 1.66211 168.132 1.90625V20.8271C168.132 21.0713 168.01 21.3154 167.766 21.5596C167.603 21.7223 167.399 21.8037 167.155 21.8037H35.5635C32.7152 21.8037 30.2738 22.821 28.2393 24.8555C26.2048 26.89 25.1875 29.3721 25.1875 32.3018ZM211.711 1.90625C211.711 1.66211 211.792 1.45866 211.955 1.2959C212.199 1.05176 212.443 0.929688 212.688 0.929688H351.237C360.84 0.929688 369.019 4.34766 375.773 11.1836C382.609 17.9382 386.027 26.1169 386.027 35.7197V47.9268C386.027 57.611 382.609 65.8711 375.773 72.707C369.019 79.4616 360.84 82.8389 351.237 82.8389H236.125V121.901C236.125 122.227 236.003 122.512 235.759 122.756C235.596 122.919 235.352 123 235.026 123H212.688C212.443 123 212.199 122.919 211.955 122.756C211.792 122.512 211.711 122.227 211.711 121.901V1.90625ZM351.237 61.9648C354.086 61.9648 356.527 60.9476 358.562 58.9131C360.596 56.7972 361.613 54.3151 361.613 51.4668V32.3018C361.613 29.3721 360.596 26.89 358.562 24.8555C356.527 22.821 354.086 21.8037 351.237 21.8037H236.125V61.9648H351.237ZM489.221 10.207C495.731 4.02214 503.137 0.929688 511.438 0.929688H560.144C560.469 0.929688 560.713 1.05176 560.876 1.2959C561.12 1.45866 561.242 1.7028 561.242 2.02832V122.023C561.242 122.268 561.12 122.512 560.876 122.756C560.713 122.919 560.469 123 560.144 123H537.805C537.561 123 537.316 122.919 537.072 122.756C536.91 122.512 536.828 122.268 536.828 122.023V21.9258H516.442C513.675 21.9258 511.234 22.943 509.118 24.9775L410.729 122.756C410.485 122.919 410.241 123 409.997 123H378.869C378.381 123 378.055 122.797 377.893 122.39C377.73 121.983 377.811 121.617 378.137 121.291L489.221 10.207ZM632.775 102.126H771.203C771.529 102.126 771.773 102.248 771.936 102.492C772.18 102.655 772.302 102.858 772.302 103.103V121.901C772.302 122.227 772.18 122.512 771.936 122.756C771.773 122.919 771.529 123 771.203 123H632.775C623.091 123 614.831 119.623 607.995 112.868C601.241 106.032 597.863 97.7721 597.863 88.0879V35.8418C597.863 26.1576 601.241 17.9382 607.995 11.1836C614.831 4.34766 623.091 0.929688 632.775 0.929688H771.203C771.529 0.929688 771.773 1.05176 771.936 1.2959C772.18 1.45866 772.302 1.7028 772.302 2.02832V20.8271C772.302 21.0713 772.18 21.3154 771.936 21.5596C771.773 21.7223 771.529 21.8037 771.203 21.8037H632.775C629.846 21.8037 627.364 22.8617 625.329 24.9775C623.295 27.012 622.277 29.4535 622.277 32.3018V91.6279C622.277 94.4762 623.295 96.9583 625.329 99.0742C627.364 101.109 629.846 102.126 632.775 102.126ZM833.459 32.3018V51.4668H964.929C965.254 51.4668 965.498 51.5889 965.661 51.833C965.905 51.9958 966.027 52.2399 966.027 52.5654V71.3643C966.027 71.6898 965.905 71.9746 965.661 72.2188C965.498 72.3815 965.254 72.4629 964.929 72.4629H833.459V91.6279C833.459 94.4762 834.476 96.9583 836.511 99.0742C838.545 101.109 841.027 102.126 843.957 102.126H982.385C982.71 102.126 982.954 102.248 983.117 102.492C983.361 102.655 983.483 102.858 983.483 103.103V121.901C983.483 122.227 983.361 122.512 983.117 122.756C982.954 122.919 982.71 123 982.385 123H843.957C834.273 123 826.013 119.623 819.177 112.868C812.422 106.032 809.045 97.7721 809.045 88.0879V35.8418C809.045 26.1576 812.422 17.9382 819.177 11.1836C826.013 4.34766 834.273 0.929688 843.957 0.929688H982.385C982.71 0.929688 982.954 1.05176 983.117 1.2959C983.361 1.45866 983.483 1.7028 983.483 2.02832V20.8271C983.483 21.0713 983.361 21.3154 983.117 21.5596C982.954 21.7223 982.71 21.8037 982.385 21.8037H843.957C841.027 21.8037 838.545 22.8617 836.511 24.9775C834.476 27.012 833.459 29.4535 833.459 32.3018Z" fill="black"/>
</svg>
